<mxfile host="app.diagrams.net" agent="Mozilla/5.0 (X11; Ubuntu; Linux x86_64; rv:125.0) Gecko/20100101 Firefox/125.0" version="24.7.16">
  <diagram name="Page-1" id="un9A2p85PjugNB1o0ie8">
    <mxGraphModel dx="3352" dy="2536" grid="1" gridSize="10" guides="1" tooltips="1" connect="1" arrows="1" fold="1" page="1" pageScale="1" pageWidth="850" pageHeight="1100" math="0" shadow="0">
      <root>
        <mxCell id="0" />
        <mxCell id="1" parent="0" />
        <mxCell id="_D26Zv26igtGGx_pEVoI-3" value="LogicTask" style="rounded=0;whiteSpace=wrap;html=1;fontStyle=1;fontSize=24;" vertex="1" parent="1">
          <mxGeometry x="780" y="360" width="260" height="370" as="geometry" />
        </mxCell>
        <mxCell id="_D26Zv26igtGGx_pEVoI-8" value="DisplayTask" style="rounded=0;whiteSpace=wrap;html=1;fontStyle=1;fontSize=24;" vertex="1" parent="1">
          <mxGeometry x="480" y="20" width="260" height="100" as="geometry" />
        </mxCell>
        <mxCell id="_D26Zv26igtGGx_pEVoI-9" value="ButtonTask" style="rounded=0;whiteSpace=wrap;html=1;fontStyle=1;fontSize=24;" vertex="1" parent="1">
          <mxGeometry x="1260" y="495" width="260" height="100" as="geometry" />
        </mxCell>
        <mxCell id="_D26Zv26igtGGx_pEVoI-14" style="edgeStyle=elbowEdgeStyle;rounded=0;orthogonalLoop=1;jettySize=auto;html=1;entryX=0;entryY=0.5;entryDx=0;entryDy=0;" edge="1" parent="1" source="_D26Zv26igtGGx_pEVoI-10" target="_D26Zv26igtGGx_pEVoI-12">
          <mxGeometry relative="1" as="geometry">
            <mxPoint x="240" y="30" as="targetPoint" />
            <Array as="points">
              <mxPoint x="-170" y="150" />
            </Array>
          </mxGeometry>
        </mxCell>
        <mxCell id="_D26Zv26igtGGx_pEVoI-10" value="CalcTaskA" style="rounded=0;whiteSpace=wrap;html=1;fontStyle=1;fontSize=24;" vertex="1" parent="1">
          <mxGeometry x="-270" y="200" width="170" height="80" as="geometry" />
        </mxCell>
        <mxCell id="_D26Zv26igtGGx_pEVoI-12" value="Notifies" style="rounded=1;whiteSpace=wrap;html=1;fontStyle=2;fontSize=18;glass=0;" vertex="1" parent="1">
          <mxGeometry x="320" y="20" width="100" height="50" as="geometry" />
        </mxCell>
        <mxCell id="_D26Zv26igtGGx_pEVoI-13" value="CalcTaskB" style="rounded=0;whiteSpace=wrap;html=1;fontStyle=1;fontSize=24;" vertex="1" parent="1">
          <mxGeometry x="-80" y="200" width="170" height="80" as="geometry" />
        </mxCell>
        <mxCell id="_D26Zv26igtGGx_pEVoI-16" value="Notifies" style="rounded=1;whiteSpace=wrap;html=1;fontStyle=2;fontSize=18;glass=0;" vertex="1" parent="1">
          <mxGeometry x="320" y="70" width="100" height="50" as="geometry" />
        </mxCell>
        <mxCell id="_D26Zv26igtGGx_pEVoI-17" style="edgeStyle=elbowEdgeStyle;rounded=0;orthogonalLoop=1;jettySize=auto;html=1;entryX=0;entryY=0.5;entryDx=0;entryDy=0;exitX=0.5;exitY=0;exitDx=0;exitDy=0;" edge="1" parent="1" source="_D26Zv26igtGGx_pEVoI-13" target="_D26Zv26igtGGx_pEVoI-16">
          <mxGeometry relative="1" as="geometry">
            <mxPoint x="-160" y="210" as="sourcePoint" />
            <mxPoint x="330" y="55" as="targetPoint" />
            <Array as="points">
              <mxPoint x="5" y="140" />
            </Array>
          </mxGeometry>
        </mxCell>
        <mxCell id="_D26Zv26igtGGx_pEVoI-19" value="&lt;div style=&quot;font-size: 14px; line-height: 19px; white-space: pre;&quot;&gt;&lt;div&gt;&lt;span style=&quot;&quot;&gt;Btn_Eventgroup_hndl&lt;/span&gt;&lt;/div&gt;&lt;/div&gt;" style="rounded=1;whiteSpace=wrap;html=1;fontStyle=0;fontSize=18;glass=0;fontColor=default;labelBackgroundColor=default;fontFamily=Helvetica;textDirection=ltr;horizontal=0;" vertex="1" parent="1">
          <mxGeometry x="1090" y="465" width="40" height="160" as="geometry" />
        </mxCell>
        <mxCell id="_D26Zv26igtGGx_pEVoI-20" value="&lt;div style=&quot;font-size: 14px; line-height: 19px; white-space: pre;&quot;&gt;&lt;div&gt;&lt;span style=&quot;&quot;&gt;Calc_Eventgroup_A_hndl&lt;/span&gt;&lt;/div&gt;&lt;/div&gt;" style="rounded=1;whiteSpace=wrap;html=1;fontStyle=0;fontSize=18;glass=0;fontColor=default;labelBackgroundColor=default;fontFamily=Helvetica;textDirection=ltr;horizontal=1;" vertex="1" parent="1">
          <mxGeometry x="250" y="540" width="180" height="40" as="geometry" />
        </mxCell>
        <mxCell id="_D26Zv26igtGGx_pEVoI-21" value="&lt;div style=&quot;font-size: 14px; line-height: 19px; white-space: pre;&quot;&gt;&lt;div&gt;&lt;span style=&quot;&quot;&gt;Calc_Eventgroup_B_hndl&lt;/span&gt;&lt;/div&gt;&lt;/div&gt;" style="rounded=1;whiteSpace=wrap;html=1;fontStyle=0;fontSize=18;glass=0;fontColor=default;labelBackgroundColor=default;fontFamily=Helvetica;textDirection=ltr;horizontal=1;" vertex="1" parent="1">
          <mxGeometry x="250" y="440" width="180" height="40" as="geometry" />
        </mxCell>
        <mxCell id="_D26Zv26igtGGx_pEVoI-22" style="edgeStyle=elbowEdgeStyle;rounded=0;orthogonalLoop=1;jettySize=auto;html=1;exitX=1;exitY=0.5;exitDx=0;exitDy=0;elbow=vertical;" edge="1" parent="1" source="_D26Zv26igtGGx_pEVoI-12" target="_D26Zv26igtGGx_pEVoI-8">
          <mxGeometry relative="1" as="geometry">
            <mxPoint x="225" y="265" as="sourcePoint" />
            <mxPoint x="550" y="170" as="targetPoint" />
          </mxGeometry>
        </mxCell>
        <mxCell id="_D26Zv26igtGGx_pEVoI-23" style="edgeStyle=elbowEdgeStyle;rounded=0;orthogonalLoop=1;jettySize=auto;html=1;exitX=1;exitY=0.5;exitDx=0;exitDy=0;elbow=vertical;" edge="1" parent="1" source="_D26Zv26igtGGx_pEVoI-16" target="_D26Zv26igtGGx_pEVoI-8">
          <mxGeometry relative="1" as="geometry">
            <mxPoint x="430" y="55" as="sourcePoint" />
            <mxPoint x="490" y="55" as="targetPoint" />
          </mxGeometry>
        </mxCell>
        <mxCell id="_D26Zv26igtGGx_pEVoI-25" style="edgeStyle=elbowEdgeStyle;rounded=0;orthogonalLoop=1;jettySize=auto;html=1;elbow=vertical;" edge="1" parent="1" source="_D26Zv26igtGGx_pEVoI-19" target="_D26Zv26igtGGx_pEVoI-3">
          <mxGeometry relative="1" as="geometry">
            <mxPoint x="1020" y="550.26" as="sourcePoint" />
            <mxPoint x="980" y="550.26" as="targetPoint" />
          </mxGeometry>
        </mxCell>
        <mxCell id="_D26Zv26igtGGx_pEVoI-26" style="edgeStyle=elbowEdgeStyle;rounded=0;orthogonalLoop=1;jettySize=auto;html=1;elbow=vertical;" edge="1" parent="1" source="_D26Zv26igtGGx_pEVoI-3" target="_D26Zv26igtGGx_pEVoI-21">
          <mxGeometry relative="1" as="geometry">
            <mxPoint x="840" y="449.83" as="sourcePoint" />
            <mxPoint x="790" y="449.83" as="targetPoint" />
          </mxGeometry>
        </mxCell>
        <mxCell id="_D26Zv26igtGGx_pEVoI-27" style="edgeStyle=elbowEdgeStyle;rounded=0;orthogonalLoop=1;jettySize=auto;html=1;elbow=vertical;" edge="1" parent="1" source="_D26Zv26igtGGx_pEVoI-3" target="_D26Zv26igtGGx_pEVoI-20">
          <mxGeometry relative="1" as="geometry">
            <mxPoint x="770" y="580.04" as="sourcePoint" />
            <mxPoint x="630" y="580.04" as="targetPoint" />
          </mxGeometry>
        </mxCell>
        <mxCell id="_D26Zv26igtGGx_pEVoI-28" value="struct timestamp" style="shape=table;startSize=30;container=1;collapsible=0;childLayout=tableLayout;fixedRows=1;rowLines=0;fontStyle=0;strokeColor=#6c8ebf;fontSize=16;fillColor=#dae8fc;" vertex="1" parent="1">
          <mxGeometry x="-630" y="40" width="280" height="180" as="geometry" />
        </mxCell>
        <mxCell id="_D26Zv26igtGGx_pEVoI-29" value="" style="shape=tableRow;horizontal=0;startSize=0;swimlaneHead=0;swimlaneBody=0;top=0;left=0;bottom=0;right=0;collapsible=0;dropTarget=0;fillColor=none;points=[[0,0.5],[1,0.5]];portConstraint=eastwest;strokeColor=inherit;fontSize=16;" vertex="1" parent="_D26Zv26igtGGx_pEVoI-28">
          <mxGeometry y="30" width="280" height="30" as="geometry" />
        </mxCell>
        <mxCell id="_D26Zv26igtGGx_pEVoI-30" value="double_t" style="shape=partialRectangle;html=1;whiteSpace=wrap;connectable=0;fillColor=none;top=0;left=0;bottom=0;right=0;overflow=hidden;pointerEvents=1;strokeColor=inherit;fontSize=16;" vertex="1" parent="_D26Zv26igtGGx_pEVoI-29">
          <mxGeometry width="100" height="30" as="geometry">
            <mxRectangle width="100" height="30" as="alternateBounds" />
          </mxGeometry>
        </mxCell>
        <mxCell id="_D26Zv26igtGGx_pEVoI-31" value="curr_val" style="shape=partialRectangle;html=1;whiteSpace=wrap;connectable=0;fillColor=none;top=0;left=0;bottom=0;right=0;align=left;spacingLeft=6;overflow=hidden;strokeColor=inherit;fontSize=16;" vertex="1" parent="_D26Zv26igtGGx_pEVoI-29">
          <mxGeometry x="100" width="180" height="30" as="geometry">
            <mxRectangle width="180" height="30" as="alternateBounds" />
          </mxGeometry>
        </mxCell>
        <mxCell id="_D26Zv26igtGGx_pEVoI-32" value="" style="shape=tableRow;horizontal=0;startSize=0;swimlaneHead=0;swimlaneBody=0;top=0;left=0;bottom=0;right=0;collapsible=0;dropTarget=0;fillColor=none;points=[[0,0.5],[1,0.5]];portConstraint=eastwest;strokeColor=inherit;fontSize=16;" vertex="1" parent="_D26Zv26igtGGx_pEVoI-28">
          <mxGeometry y="60" width="280" height="30" as="geometry" />
        </mxCell>
        <mxCell id="_D26Zv26igtGGx_pEVoI-33" value="uint32_t" style="shape=partialRectangle;html=1;whiteSpace=wrap;connectable=0;fillColor=none;top=0;left=0;bottom=0;right=0;overflow=hidden;strokeColor=inherit;fontSize=16;" vertex="1" parent="_D26Zv26igtGGx_pEVoI-32">
          <mxGeometry width="100" height="30" as="geometry">
            <mxRectangle width="100" height="30" as="alternateBounds" />
          </mxGeometry>
        </mxCell>
        <mxCell id="_D26Zv26igtGGx_pEVoI-34" value="start_tick_count" style="shape=partialRectangle;html=1;whiteSpace=wrap;connectable=0;fillColor=none;top=0;left=0;bottom=0;right=0;align=left;spacingLeft=6;overflow=hidden;strokeColor=inherit;fontSize=16;" vertex="1" parent="_D26Zv26igtGGx_pEVoI-32">
          <mxGeometry x="100" width="180" height="30" as="geometry">
            <mxRectangle width="180" height="30" as="alternateBounds" />
          </mxGeometry>
        </mxCell>
        <mxCell id="_D26Zv26igtGGx_pEVoI-35" value="" style="shape=tableRow;horizontal=0;startSize=0;swimlaneHead=0;swimlaneBody=0;top=0;left=0;bottom=0;right=0;collapsible=0;dropTarget=0;fillColor=none;points=[[0,0.5],[1,0.5]];portConstraint=eastwest;strokeColor=inherit;fontSize=16;" vertex="1" parent="_D26Zv26igtGGx_pEVoI-28">
          <mxGeometry y="90" width="280" height="30" as="geometry" />
        </mxCell>
        <mxCell id="_D26Zv26igtGGx_pEVoI-36" value="uint32_t" style="shape=partialRectangle;html=1;whiteSpace=wrap;connectable=0;fillColor=none;top=0;left=0;bottom=0;right=0;overflow=hidden;strokeColor=inherit;fontSize=16;" vertex="1" parent="_D26Zv26igtGGx_pEVoI-35">
          <mxGeometry width="100" height="30" as="geometry">
            <mxRectangle width="100" height="30" as="alternateBounds" />
          </mxGeometry>
        </mxCell>
        <mxCell id="_D26Zv26igtGGx_pEVoI-37" value="end_tick_count" style="shape=partialRectangle;html=1;whiteSpace=wrap;connectable=0;fillColor=none;top=0;left=0;bottom=0;right=0;align=left;spacingLeft=6;overflow=hidden;strokeColor=inherit;fontSize=16;" vertex="1" parent="_D26Zv26igtGGx_pEVoI-35">
          <mxGeometry x="100" width="180" height="30" as="geometry">
            <mxRectangle width="180" height="30" as="alternateBounds" />
          </mxGeometry>
        </mxCell>
        <mxCell id="_D26Zv26igtGGx_pEVoI-38" style="shape=tableRow;horizontal=0;startSize=0;swimlaneHead=0;swimlaneBody=0;top=0;left=0;bottom=0;right=0;collapsible=0;dropTarget=0;fillColor=none;points=[[0,0.5],[1,0.5]];portConstraint=eastwest;strokeColor=inherit;fontSize=16;" vertex="1" parent="_D26Zv26igtGGx_pEVoI-28">
          <mxGeometry y="120" width="280" height="30" as="geometry" />
        </mxCell>
        <mxCell id="_D26Zv26igtGGx_pEVoI-39" value="uint32_t" style="shape=partialRectangle;html=1;whiteSpace=wrap;connectable=0;fillColor=none;top=0;left=0;bottom=0;right=0;overflow=hidden;strokeColor=inherit;fontSize=16;" vertex="1" parent="_D26Zv26igtGGx_pEVoI-38">
          <mxGeometry width="100" height="30" as="geometry">
            <mxRectangle width="100" height="30" as="alternateBounds" />
          </mxGeometry>
        </mxCell>
        <mxCell id="_D26Zv26igtGGx_pEVoI-40" value="ms" style="shape=partialRectangle;html=1;whiteSpace=wrap;connectable=0;fillColor=none;top=0;left=0;bottom=0;right=0;align=left;spacingLeft=6;overflow=hidden;strokeColor=inherit;fontSize=16;" vertex="1" parent="_D26Zv26igtGGx_pEVoI-38">
          <mxGeometry x="100" width="180" height="30" as="geometry">
            <mxRectangle width="180" height="30" as="alternateBounds" />
          </mxGeometry>
        </mxCell>
        <mxCell id="_D26Zv26igtGGx_pEVoI-44" style="shape=tableRow;horizontal=0;startSize=0;swimlaneHead=0;swimlaneBody=0;top=0;left=0;bottom=0;right=0;collapsible=0;dropTarget=0;fillColor=none;points=[[0,0.5],[1,0.5]];portConstraint=eastwest;strokeColor=inherit;fontSize=16;" vertex="1" parent="_D26Zv26igtGGx_pEVoI-28">
          <mxGeometry y="150" width="280" height="30" as="geometry" />
        </mxCell>
        <mxCell id="_D26Zv26igtGGx_pEVoI-45" value="uint32_t" style="shape=partialRectangle;html=1;whiteSpace=wrap;connectable=0;fillColor=none;top=0;left=0;bottom=0;right=0;overflow=hidden;strokeColor=inherit;fontSize=16;" vertex="1" parent="_D26Zv26igtGGx_pEVoI-44">
          <mxGeometry width="100" height="30" as="geometry">
            <mxRectangle width="100" height="30" as="alternateBounds" />
          </mxGeometry>
        </mxCell>
        <mxCell id="_D26Zv26igtGGx_pEVoI-46" value="iters" style="shape=partialRectangle;html=1;whiteSpace=wrap;connectable=0;fillColor=none;top=0;left=0;bottom=0;right=0;align=left;spacingLeft=6;overflow=hidden;strokeColor=inherit;fontSize=16;" vertex="1" parent="_D26Zv26igtGGx_pEVoI-44">
          <mxGeometry x="100" width="180" height="30" as="geometry">
            <mxRectangle width="180" height="30" as="alternateBounds" />
          </mxGeometry>
        </mxCell>
        <mxCell id="_D26Zv26igtGGx_pEVoI-49" value="struct timestamp" style="swimlane;fontStyle=0;childLayout=stackLayout;horizontal=1;startSize=30;horizontalStack=0;resizeParent=1;resizeParentMax=0;resizeLast=0;collapsible=1;marginBottom=0;whiteSpace=wrap;html=1;fillColor=#dae8fc;strokeColor=#6c8ebf;" vertex="1" parent="1">
          <mxGeometry x="240" y="-140" width="140" height="60" as="geometry" />
        </mxCell>
        <mxCell id="_D26Zv26igtGGx_pEVoI-50" value="g_running_ts_A" style="text;strokeColor=none;fillColor=none;align=left;verticalAlign=middle;spacingLeft=4;spacingRight=4;overflow=hidden;points=[[0,0.5],[1,0.5]];portConstraint=eastwest;rotatable=0;whiteSpace=wrap;html=1;" vertex="1" parent="_D26Zv26igtGGx_pEVoI-49">
          <mxGeometry y="30" width="140" height="30" as="geometry" />
        </mxCell>
        <mxCell id="_D26Zv26igtGGx_pEVoI-53" value="struct timestamp" style="swimlane;fontStyle=0;childLayout=stackLayout;horizontal=1;startSize=30;horizontalStack=0;resizeParent=1;resizeParentMax=0;resizeLast=0;collapsible=1;marginBottom=0;whiteSpace=wrap;html=1;fillColor=#dae8fc;strokeColor=#6c8ebf;" vertex="1" parent="1">
          <mxGeometry x="240" y="-70" width="140" height="60" as="geometry" />
        </mxCell>
        <mxCell id="_D26Zv26igtGGx_pEVoI-54" value="g_running_ts_B" style="text;strokeColor=none;fillColor=none;align=left;verticalAlign=middle;spacingLeft=4;spacingRight=4;overflow=hidden;points=[[0,0.5],[1,0.5]];portConstraint=eastwest;rotatable=0;whiteSpace=wrap;html=1;" vertex="1" parent="_D26Zv26igtGGx_pEVoI-53">
          <mxGeometry y="30" width="140" height="30" as="geometry" />
        </mxCell>
        <mxCell id="_D26Zv26igtGGx_pEVoI-60" style="edgeStyle=elbowEdgeStyle;rounded=0;orthogonalLoop=1;jettySize=auto;elbow=vertical;html=1;" edge="1" parent="1" source="_D26Zv26igtGGx_pEVoI-55" target="_D26Zv26igtGGx_pEVoI-21">
          <mxGeometry relative="1" as="geometry">
            <mxPoint x="560" y="390" as="targetPoint" />
          </mxGeometry>
        </mxCell>
        <mxCell id="_D26Zv26igtGGx_pEVoI-55" value="checks" style="rounded=1;whiteSpace=wrap;html=1;fontStyle=2;fontSize=18;glass=0;" vertex="1" parent="1">
          <mxGeometry x="630" y="160" width="100" height="50" as="geometry" />
        </mxCell>
        <mxCell id="_D26Zv26igtGGx_pEVoI-57" style="edgeStyle=elbowEdgeStyle;rounded=0;orthogonalLoop=1;jettySize=auto;html=1;" edge="1" parent="1" source="_D26Zv26igtGGx_pEVoI-8" target="_D26Zv26igtGGx_pEVoI-63">
          <mxGeometry relative="1" as="geometry">
            <mxPoint x="670" y="320" as="sourcePoint" />
            <mxPoint x="550.2592592592591" y="159.99999999999977" as="targetPoint" />
          </mxGeometry>
        </mxCell>
        <mxCell id="_D26Zv26igtGGx_pEVoI-58" style="edgeStyle=elbowEdgeStyle;rounded=0;orthogonalLoop=1;jettySize=auto;html=1;exitX=0.75;exitY=1;exitDx=0;exitDy=0;" edge="1" parent="1" source="_D26Zv26igtGGx_pEVoI-8" target="_D26Zv26igtGGx_pEVoI-55">
          <mxGeometry relative="1" as="geometry">
            <mxPoint x="560" y="130" as="sourcePoint" />
            <mxPoint x="560" y="170" as="targetPoint" />
            <Array as="points" />
          </mxGeometry>
        </mxCell>
        <mxCell id="_D26Zv26igtGGx_pEVoI-61" style="edgeStyle=elbowEdgeStyle;rounded=0;orthogonalLoop=1;jettySize=auto;html=1;exitX=0.25;exitY=0;exitDx=0;exitDy=0;" edge="1" parent="1" source="_D26Zv26igtGGx_pEVoI-10" target="_D26Zv26igtGGx_pEVoI-49">
          <mxGeometry relative="1" as="geometry">
            <mxPoint x="-270" as="sourcePoint" />
            <mxPoint x="220" y="-155" as="targetPoint" />
            <Array as="points">
              <mxPoint x="-227" y="70" />
            </Array>
          </mxGeometry>
        </mxCell>
        <mxCell id="_D26Zv26igtGGx_pEVoI-62" style="edgeStyle=elbowEdgeStyle;rounded=0;orthogonalLoop=1;jettySize=auto;html=1;exitX=0.25;exitY=0;exitDx=0;exitDy=0;" edge="1" parent="1" source="_D26Zv26igtGGx_pEVoI-13" target="_D26Zv26igtGGx_pEVoI-53">
          <mxGeometry relative="1" as="geometry">
            <mxPoint x="-217" y="210" as="sourcePoint" />
            <mxPoint x="250" y="-100" as="targetPoint" />
            <Array as="points">
              <mxPoint x="-40" y="80" />
            </Array>
          </mxGeometry>
        </mxCell>
        <mxCell id="_D26Zv26igtGGx_pEVoI-63" value="reads" style="rounded=1;whiteSpace=wrap;html=1;fontStyle=2;fontSize=18;glass=0;" vertex="1" parent="1">
          <mxGeometry x="570" y="-100" width="100" height="50" as="geometry" />
        </mxCell>
        <mxCell id="_D26Zv26igtGGx_pEVoI-64" style="edgeStyle=elbowEdgeStyle;rounded=0;orthogonalLoop=1;jettySize=auto;html=1;" edge="1" parent="1" source="_D26Zv26igtGGx_pEVoI-63" target="_D26Zv26igtGGx_pEVoI-49">
          <mxGeometry relative="1" as="geometry">
            <mxPoint x="550" y="30" as="sourcePoint" />
            <mxPoint x="550" y="-30" as="targetPoint" />
          </mxGeometry>
        </mxCell>
        <mxCell id="_D26Zv26igtGGx_pEVoI-65" style="edgeStyle=elbowEdgeStyle;rounded=0;orthogonalLoop=1;jettySize=auto;html=1;" edge="1" parent="1" source="_D26Zv26igtGGx_pEVoI-63" target="_D26Zv26igtGGx_pEVoI-53">
          <mxGeometry relative="1" as="geometry">
            <mxPoint x="580" y="-55" as="sourcePoint" />
            <mxPoint x="390" y="-100" as="targetPoint" />
          </mxGeometry>
        </mxCell>
        <mxCell id="_D26Zv26igtGGx_pEVoI-66" value="sets" style="rounded=1;whiteSpace=wrap;html=1;fontStyle=2;fontSize=18;glass=0;horizontal=0;" vertex="1" parent="1">
          <mxGeometry x="1180" y="510" width="40" height="70" as="geometry" />
        </mxCell>
        <mxCell id="_D26Zv26igtGGx_pEVoI-67" style="edgeStyle=elbowEdgeStyle;rounded=0;orthogonalLoop=1;jettySize=auto;html=1;elbow=vertical;exitX=0;exitY=0.5;exitDx=0;exitDy=0;" edge="1" parent="1" source="_D26Zv26igtGGx_pEVoI-9" target="_D26Zv26igtGGx_pEVoI-66">
          <mxGeometry relative="1" as="geometry">
            <mxPoint x="1250" y="625" as="sourcePoint" />
            <mxPoint x="1200" y="625" as="targetPoint" />
          </mxGeometry>
        </mxCell>
        <mxCell id="_D26Zv26igtGGx_pEVoI-68" style="edgeStyle=elbowEdgeStyle;rounded=0;orthogonalLoop=1;jettySize=auto;html=1;elbow=vertical;" edge="1" parent="1" source="_D26Zv26igtGGx_pEVoI-66" target="_D26Zv26igtGGx_pEVoI-19">
          <mxGeometry relative="1" as="geometry">
            <mxPoint x="1200" y="620" as="sourcePoint" />
            <mxPoint x="1130" y="620" as="targetPoint" />
          </mxGeometry>
        </mxCell>
      </root>
    </mxGraphModel>
  </diagram>
</mxfile>
